<svg width="600" height="500" xmlns="http://www.w3.org/2000/svg">
  <defs>
    <radialGradient id="orangeGrad3" cx="35%" cy="35%">
      <stop offset="0%" style="stop-color:#ffb347;stop-opacity:1" />
      <stop offset="60%" style="stop-color:#ff8c42;stop-opacity:1" />
      <stop offset="100%" style="stop-color:#ff7b2e;stop-opacity:1" />
    </radialGradient>
    <radialGradient id="leafGrad2" cx="30%" cy="30%">
      <stop offset="0%" style="stop-color:#7cb342;stop-opacity:1" />
      <stop offset="100%" style="stop-color:#558b2f;stop-opacity:1" />
    </radialGradient>
  </defs>
  
  <!-- Shadow -->
  <ellipse cx="300" cy="470" rx="200" ry="20" fill="#000000" opacity="0.1"/>
  
  <!-- Orange 1 (back left) -->
  <circle cx="200" cy="300" r="100" fill="url(#orangeGrad3)"/>
  <circle cx="185" cy="285" r="2" fill="#ff7b2e" opacity="0.4"/>
  <circle cx="205" cy="275" r="2.5" fill="#ff7b2e" opacity="0.4"/>
  <circle cx="220" cy="295" r="2" fill="#ff7b2e" opacity="0.4"/>
  <circle cx="200" cy="315" r="2.5" fill="#ff7b2e" opacity="0.4"/>
  <ellipse cx="175" cy="275" rx="25" ry="30" fill="#ffffff" opacity="0.3"/>
  
  <!-- Orange 2 (back right) -->
  <circle cx="400" cy="300" r="100" fill="url(#orangeGrad3)"/>
  <circle cx="385" cy="285" r="2" fill="#ff7b2e" opacity="0.4"/>
  <circle cx="405" cy="275" r="2.5" fill="#ff7b2e" opacity="0.4"/>
  <circle cx="420" cy="295" r="2" fill="#ff7b2e" opacity="0.4"/>
  <circle cx="400" cy="315" r="2.5" fill="#ff7b2e" opacity="0.4"/>
  <ellipse cx="375" cy="275" rx="25" ry="30" fill="#ffffff" opacity="0.3"/>
  
  <!-- Orange 3 (front center) - Main focus -->
  <circle cx="300" cy="280" r="120" fill="url(#orangeGrad3)"/>
  
  <!-- Texture dots for front orange -->
  <circle cx="270" cy="250" r="3" fill="#ff7b2e" opacity="0.4"/>
  <circle cx="295" cy="235" r="2.5" fill="#ff7b2e" opacity="0.4"/>
  <circle cx="320" cy="245" r="3" fill="#ff7b2e" opacity="0.4"/>
  <circle cx="340" cy="270" r="2.5" fill="#ff7b2e" opacity="0.4"/>
  <circle cx="345" cy="300" r="3" fill="#ff7b2e" opacity="0.4"/>
  <circle cx="330" cy="325" r="2" fill="#ff7b2e" opacity="0.4"/>
  <circle cx="305" cy="340" r="2.5" fill="#ff7b2e" opacity="0.4"/>
  <circle cx="275" cy="335" r="3" fill="#ff7b2e" opacity="0.4"/>
  <circle cx="255" cy="310" r="2.5" fill="#ff7b2e" opacity="0.4"/>
  <circle cx="260" cy="280" r="2" fill="#ff7b2e" opacity="0.4"/>
  
  <!-- Stem on front orange -->
  <rect x="295" y="155" width="10" height="15" fill="#8b6f47" rx="2"/>
  
  <!-- Leaves on front orange -->
  <ellipse cx="282" cy="165" rx="20" ry="12" fill="url(#leafGrad2)" transform="rotate(-25 282 165)"/>
  <ellipse cx="318" cy="165" rx="20" ry="12" fill="url(#leafGrad2)" transform="rotate(25 318 165)"/>
  
  <!-- Highlight on front orange -->
  <ellipse cx="270" cy="240" rx="35" ry="45" fill="#ffffff" opacity="0.35"/>
  <ellipse cx="260" cy="235" rx="20" ry="25" fill="#ffffff" opacity="0.4"/>
  
  <!-- Small orange 4 (bottom left) -->
  <circle cx="150" cy="400" r="70" fill="url(#orangeGrad3)"/>
  <circle cx="140" cy="390" r="2" fill="#ff7b2e" opacity="0.4"/>
  <circle cx="155" cy="385" r="2" fill="#ff7b2e" opacity="0.4"/>
  <ellipse cx="135" cy="385" rx="18" ry="22" fill="#ffffff" opacity="0.3"/>
</svg>
